<svg width="220px" height="160px" viewBox="400 100 1100 820" fill="#FFCC00" xmlns="http://www.w3.org/2000/svg">
<path d="M435.58,213.74c17.08,10.26,27.82,24.43,41.05,50.31c20.15,39.43,20.85,41.27,27.8,64.88
	c5.44,18.47,6.2,33.17,6.62,41.05c3,56.11,8.81,112.05,11.92,168.15c0.24,4.39,4.38,75.13,19.86,160.21
	c3.53,19.38,9.47,49.55,33.1,75.47c6.43,7.05,22.89,24.64,50.31,31.78c6.64,1.73,21.98,5.53,41.05,1.32
	c23.46-5.18,37.8-19.22,43.69-25.16c13.85-13.94,19.46-28.07,26.48-46.34c12.83-33.38,15.44-61.38,15.89-66.2
	c6.77-72.84,3.4-161.47,1.35-204.67c-0.06-1.33,0.83-39.03,2.63-114.42c0.04-1.69,0.17-6.19,1.32-11.92
	c3.09-15.32,9.58-34.2,10.59-38.4c9.27-38.4,14.43-49.67,39.72-68.85c8.12-6.16,14.36-8.61,27.8-14.56
	c3.01-1.33,12.62-5.81,18.54-6.62c9.2-1.26,32.2-1.32,34.42-1.32c23.83,0,41.85-6.51,79.44,6.62c5.47,1.91,28.26,10.44,45.02,31.78
	c4.65,5.92,7.96,11.89,14.56,23.83c9.05,16.35,14,27.98,19.86,41.05c17.16,38.27,16.3,31.28,25.16,52.96
	c11.08,27.13,14.25,42.5,25.16,59.58c0,0,0.14,0.22,11.92,18.54c3.03,0.46,6.91,0.51,10.59-1.32c9.21-4.59,8.61-16.68,17.21-33.1
	c3.62-6.91,5.22-7.61,11.92-17.21c13.45-19.27,13.82-26.19,29.13-54.29c6.6-12.11,12.34-21.32,23.83-39.72
	c11.99-19.21,17.99-28.82,23.83-35.75c6.95-8.24,18.87-22.14,38.4-33.1c11.02-6.18,21.85-9.97,35.75-13.24
	c24.5-5.76,44.5-6.61,83.41-6.62c103.66-0.03,115.37,5.95,129.76,1.32c1.82-0.59,7.87-2.69,10.59,0c3.55,3.5,0.41,14.11-5.3,21.18
	c-3.79,4.71-6.52,5.12-15.89,11.92c-7.55,5.47-11.7,9.49-14.56,11.92c-19.68,16.66-66.26,32.24-68.85,33.1
	c-13.72,4.53-46.16,15.24-68.85,14.56c-1.99-0.06-10.32-0.4-21.18,1.32c-4.75,0.75-12.56,1.99-19.86,5.3
	c-12.12,5.49-19.02,14.95-22.51,19.86c-44.34,62.34-99.66,178.03-119.16,197.28c-1.61,1.58-8.48,7.95-7.94,15.89
	c0.38,5.66,4.36,9.61,5.3,10.59c9.15,9.66,111.22,227.73,111.22,227.73c2.16,2.5,5.73,6.39,10.59,10.59
	c24.91,21.51,49.47,21.5,108.57,33.1c45.7,8.97,60.18,14.7,71.5,22.51c18.44,12.72,29.13,25.16,29.13,25.16
	c4.49,5.23,17.65,21.19,13.24,15.89c-1.8,2.4-4.76,5.67-9.27,7.94c-9.41,4.74-19.52,2.06-22.51,1.32
	c-20.58-5.05-42.38-0.45-63.55-1.32c-47.67-1.97-46.49,3.13-84.74,0c-30.48-2.49-45.65-6.9-52.96-9.27
	c-14-4.53-30.28-10.03-46.34-23.83c-11.54-9.92-17.58-19.51-27.8-35.75c-3.8-6.03-8.4-13.86-23.83-46.34
	c-5.81-12.24-13.74-29.19-23.83-51.64c-11.9-26.46-14.49-33.17-23.83-52.96c-2.2-4.65-10.32-21.79-11.71-24.73
	c-0.07-0.14-0.12-0.26-0.2-0.43c-2.18-4.4-6.99-7.96-10.59-7.94c-4.51,0.02-7.91,5.63-9.27,7.94
	c-10.88,18.54-81.64,150.72-112.54,194.63c-3.65,5.19-10.62,14.66-21.18,25.16c-18.83,18.72-36.74,28.48-46.34,33.1
	c-20.77,9.99-35.24,11.57-46.34,10.59c-13.3-1.17-15.42-5.43-15.89-6.62c-1.8-4.59,2.74-10.31,3.97-11.92
	c26.93-35.08,169.38-313.92,198.61-342.93c1.13-1.13,5.65-5.4,6.62-11.92c1.21-8.12-3.79-15.05-5.3-17.21
	c-17.71-25.39-98.58-173.64-104.6-201.25c-0.36-1.67-1.57-8-6.62-13.24c-4.59-4.76-10.34-6.52-17.21-7.94
	c-11.03-2.28-21-4.35-37.07-2.65c-17.92,1.89-35.03,3.7-43.69,15.89c-5.75,8.09-5.42,17.42-5.3,21.18
	c4.02,125.3-8.57,250.68-6.62,376.03c0.15,9.95-1.26,19.46-1.32,19.86c0,0-1.31,8.59-3.97,17.21
	c-11,35.64-76.05,117.02-86.06,141.67c-0.58,1.42-2.28,5.88-6.62,9.27c-7.52,5.87-17.68,4.41-21.18,3.97
	c-30.16-3.78-106.99,0.43-127.11,2.65c-2.74,0.3-9.93,1.17-18.54-1.32c-10.95-3.18-17.92-9.99-21.18-13.24
	c-54.57-54.49-82.09-100.63-82.09-100.63c-11.68-19.58-15.29-28.16-17.21-33.1c-10.57-27.12-11.53-49.95-11.92-58.26
	c-2.69-57.66-19.09-301.59-29.13-368.08c-3.44-22.76-2.35-46.02-5.3-68.85c0,0-1.33-10.28,1.32-34.43
	c1.2-10.93,2.56-16.26,6.62-18.54C423.09,206.38,431.9,211.53,435.58,213.74z"/>
</svg>

